<svg width="268" height="70" viewBox="0 0 268 70" fill="none" xmlns="http://www.w3.org/2000/svg">
<path fill-rule="evenodd" clip-rule="evenodd" d="M37.4905 5.6422C37.7636 3.20276 36.0342 0.99998 33.5947 0.726908C31.1553 0.435631 28.9525 2.18329 28.6794 4.62273C28.3517 7.40806 28.8069 10.7395 29.3894 14.162C31.0096 14.6536 32.5753 15.3636 34.0316 16.201C35.5972 12.5054 37.1265 8.84624 37.4905 5.6422ZM54.6212 16.3466C53.6564 14.0892 51.0349 13.0697 48.7775 14.0346C45.8101 15.3271 42.7335 17.8576 39.6387 20.4609C40.8038 21.6078 41.8961 22.9003 42.8245 24.3021C46.3381 23.8652 49.706 23.3372 52.3092 22.2085C54.5666 21.2073 55.6043 18.5858 54.6212 16.3466ZM47.1391 4.44068C45.173 2.9843 42.3876 3.38481 40.9312 5.35092C38.7103 8.33651 37.2175 12.7967 35.5972 17.1476C36.1434 17.5117 36.6531 17.8758 37.1447 18.2581C37.5087 18.5494 37.8911 18.8589 38.2734 19.1683C41.9871 16.3648 45.8465 13.6341 48.0675 10.6485C49.5239 8.6824 49.1052 5.89707 47.1391 4.44068Z" fill="white"/>
<path d="M38.6921 40.0856C37.3268 41.5602 35.8704 42.9256 34.323 44.2545C32.1566 46.1296 29.9538 47.9501 27.7146 49.6978C25.3116 48.2232 23.5822 47.4768 23.2909 47.8591C23.036 48.205 24.0373 49.4793 25.8395 51.1359C19.7956 55.6325 13.4057 59.6012 6.54248 62.8598C5.46839 63.3696 4.3397 63.7337 3.22921 64.1342C2.93793 64.2434 2.62845 64.2434 2.50101 64.2616C0.753356 64.4618 0.225417 63.9885 0.298236 62.3865C0.516694 57.3984 2.0641 52.7198 3.66612 48.0593C4.10304 46.785 4.55816 45.5107 5.03148 44.2363C7.45272 45.7109 9.18217 46.4755 9.47345 46.0932C9.78293 45.6745 8.32654 43.9997 5.8871 41.9061C7.63476 37.3913 9.58267 32.9494 11.8765 28.6895C16.4641 32.0938 20.542 34.3329 20.9971 33.714C21.4522 33.095 18.0843 29.7999 13.4421 26.3592L13.2418 26.2136C14.0428 24.8482 14.8803 23.4829 15.7723 22.1539C16.8828 20.4791 18.2481 18.9499 19.5953 17.4571C21.3976 15.4728 23.7278 14.7992 26.3311 15.3818C34.6689 17.2386 40.458 22.0265 43.1887 30.2369C43.7348 31.9117 43.2433 33.5501 42.3877 35.0611C41.8051 36.0806 41.168 37.0455 40.458 37.9557C36.0524 34.7334 32.2294 32.6581 31.7925 33.2407C31.3738 33.8232 34.414 36.827 38.6921 40.0856Z" fill="white"/>
<path d="M92.3962 10.4026C86.6253 10.4026 82.8751 12.7146 80.5995 17.1019H80.4721V14.3712C80.4721 12.4051 78.8701 10.8213 76.9039 10.8213C74.9378 10.8213 73.354 12.4051 73.354 14.3712V44.573C73.354 46.5391 74.9378 48.1411 76.9039 48.1411H77.2498C79.2159 48.1411 80.818 46.5391 80.818 44.573V26.5866C80.818 20.7065 84.1858 16.7925 89.8111 16.7925C95.2726 16.7925 97.894 19.9601 97.894 25.6218V44.573C97.894 46.5391 99.4779 48.1411 101.444 48.1411H101.79C103.756 48.1411 105.34 46.5391 105.34 44.573V24.22C105.34 15.6274 100.643 10.4026 92.3962 10.4026Z" fill="white"/>
<path d="M128.369 10.3297C117.937 10.3297 111.129 17.9393 111.129 29.6086C111.129 41.296 117.865 48.578 128.678 48.578C135.378 48.578 140.912 45.6106 143.406 40.9866C144.334 39.2935 143.06 37.2 141.13 37.2H139.237C138.29 37.2 137.471 37.7461 136.98 38.5653C135.542 41.0412 132.52 42.534 128.824 42.534C122.707 42.534 118.647 38.2741 118.647 31.8114V31.3744H142.496C143.916 31.3744 145.081 30.2093 145.081 28.7894V28.753C145.081 17.4478 138.618 10.3297 128.369 10.3297ZM118.684 26.0768C119.103 20.3423 122.98 16.4101 128.351 16.4101C133.776 16.4101 137.453 20.2695 137.617 26.0768H118.684Z" fill="white"/>
<path d="M179.797 35.5979H177.813C176.739 35.5979 175.811 36.2715 175.41 37.2728C174.118 40.5679 171.168 42.3337 166.981 42.3337C160.992 42.3337 156.95 37.5094 156.95 29.4811C156.95 21.6349 160.937 16.6286 166.945 16.6286C171.278 16.6286 174.172 18.7767 175.355 21.8351C175.756 22.8546 176.684 23.5646 177.795 23.5646H179.779C181.509 23.5646 182.801 21.8715 182.237 20.2331C180.325 14.6078 174.864 10.3297 166.872 10.3297C156.331 10.3297 149.377 17.8665 149.377 29.4811C149.377 41.296 156.35 48.578 166.945 48.578C174.536 48.578 180.18 44.8642 182.255 38.984C182.838 37.3274 181.563 35.5979 179.797 35.5979Z" fill="white"/>
<path d="M202.153 42.2791C202.025 42.2609 201.88 42.2427 201.752 42.2427C199.295 41.9514 198.148 40.4222 198.148 37.5459V16.7014H202.353C203.991 16.7014 205.302 15.3724 205.302 13.7522C205.302 12.132 203.991 10.8212 202.353 10.8212H198.148V6.14261C198.148 5.12314 197.729 4.1947 197.055 3.52112C196.382 2.84754 195.472 2.42883 194.434 2.42883C192.395 2.42883 190.738 4.10367 190.738 6.14261V10.8212H188.517C186.897 10.8212 185.568 12.132 185.568 13.7522C185.568 15.3724 186.897 16.7014 188.517 16.7014H190.738V38.3105C190.738 45.5196 193.615 48.3777 201.079 48.3777C201.097 48.3777 201.115 48.3777 201.115 48.3777C201.971 48.3777 202.754 48.1228 203.409 47.6677C203.427 47.6677 203.445 47.6495 203.445 47.6495C204.21 47.1034 204.72 46.2113 204.72 45.2101C204.72 43.7173 203.609 42.4611 202.153 42.2791Z" fill="white"/>
<path d="M226.365 10.3297C220.54 10.3297 215.734 12.6963 213.276 16.3555C212.875 16.9745 212.675 17.648 212.675 18.3034C212.675 20.1239 214.132 21.8169 216.189 21.8169C217.39 21.8169 218.537 21.1798 219.101 20.1239C220.303 17.8665 222.87 16.4829 226.165 16.4829C231.153 16.4829 233.993 18.8313 233.993 23.0913V23.5464C233.993 24.9117 232.937 26.0404 231.572 26.1133L223.926 26.5502C214.714 27.1327 209.671 30.9193 209.671 37.4548C209.671 44.1178 214.823 48.5051 222.287 48.5051C227.366 48.5051 232.009 45.9747 234.066 41.915H234.23V44.5729C234.23 45.556 234.63 46.448 235.267 47.1034C235.923 47.7405 236.815 48.141 237.798 48.141C239.764 48.141 241.348 46.539 241.348 44.5729V22.5451C241.348 15.154 235.468 10.3297 226.365 10.3297ZM233.993 34.1234C233.993 39.0204 229.806 42.5704 224.272 42.5704C219.975 42.5704 217.19 40.5132 217.19 37.3092C217.19 34.0141 219.848 32.1208 224.927 31.8114L233.993 31.1924V34.1234Z" fill="white"/>
<path d="M265.105 10.439C260.699 10.439 257.277 12.9512 256.094 17.1019H255.966V14.3712C255.966 12.4051 254.364 10.8213 252.416 10.8213C250.45 10.8213 248.848 12.4051 248.848 14.3712V44.4091C248.848 45.4286 249.267 46.3752 249.94 47.0488C250.614 47.7224 251.542 48.1411 252.58 48.1411C254.637 48.1411 256.312 46.4662 256.312 44.4091V25.8766C256.312 20.6154 259.407 17.2111 264.322 17.2111C264.522 17.2111 264.741 17.2111 264.941 17.2293C266.47 17.284 267.708 16.0278 267.708 14.4986V13.0605C267.708 11.6223 266.543 10.439 265.105 10.439Z" fill="white"/>
<path d="M204.72 45.2101C204.72 46.2113 204.21 47.1034 203.445 47.6495C203.445 47.6495 203.427 47.6677 203.409 47.6677C202.936 47.9954 202.371 48.1774 201.752 48.1774C200.096 48.1774 198.767 46.8485 198.767 45.2101C198.767 43.5716 200.096 42.2427 201.752 42.2427C201.88 42.2427 202.026 42.2609 202.153 42.2791C203.609 42.4611 204.72 43.7173 204.72 45.2101Z" fill="white"/>
<path d="M74.8063 65.4308C74.0877 65.4308 73.4343 65.2675 72.8463 64.9408C72.2677 64.6141 71.8103 64.1521 71.4743 63.5548C71.1477 62.9481 70.9843 62.2481 70.9843 61.4548C70.9843 60.6708 71.1523 59.9801 71.4883 59.3828C71.8337 58.7761 72.3003 58.3141 72.8883 57.9968C73.4763 57.6701 74.1343 57.5068 74.8623 57.5068C75.5903 57.5068 76.2483 57.6701 76.8363 57.9968C77.4243 58.3141 77.8863 58.7715 78.2223 59.3688C78.5677 59.9661 78.7403 60.6615 78.7403 61.4548C78.7403 62.2481 78.563 62.9481 78.2083 63.5548C77.863 64.1521 77.3917 64.6141 76.7943 64.9408C76.197 65.2675 75.5343 65.4308 74.8063 65.4308ZM74.8063 64.3108C75.2637 64.3108 75.693 64.2035 76.0943 63.9888C76.4957 63.7741 76.8177 63.4521 77.0603 63.0228C77.3123 62.5935 77.4383 62.0708 77.4383 61.4548C77.4383 60.8388 77.317 60.3161 77.0743 59.8868C76.8317 59.4575 76.5143 59.1401 76.1223 58.9348C75.7303 58.7201 75.3057 58.6128 74.8483 58.6128C74.3817 58.6128 73.9523 58.7201 73.5603 58.9348C73.1777 59.1401 72.8697 59.4575 72.6363 59.8868C72.403 60.3161 72.2863 60.8388 72.2863 61.4548C72.2863 62.0801 72.3983 62.6075 72.6223 63.0368C72.8557 63.4661 73.1637 63.7881 73.5463 64.0028C73.929 64.2081 74.349 64.3108 74.8063 64.3108ZM89.6534 57.4928C90.5867 57.4928 91.3427 57.7775 91.9214 58.3468C92.5001 58.9068 92.7894 59.7188 92.7894 60.7828V65.3048H91.5294V60.9648C91.5294 60.1995 91.3381 59.6161 90.9554 59.2148C90.5727 58.8041 90.0501 58.5988 89.3874 58.5988C88.7154 58.5988 88.1787 58.8088 87.7774 59.2288C87.3854 59.6488 87.1894 60.2601 87.1894 61.0628V65.3048H85.9154V57.6328H87.1894V58.7248C87.4414 58.3328 87.7821 58.0295 88.2114 57.8148C88.6501 57.6001 89.1307 57.4928 89.6534 57.4928ZM101.644 54.9448V65.3048H100.37V54.9448H101.644ZM109.974 56.3868C109.731 56.3868 109.526 56.3028 109.358 56.1348C109.19 55.9668 109.106 55.7615 109.106 55.5188C109.106 55.2761 109.19 55.0708 109.358 54.9028C109.526 54.7348 109.731 54.6508 109.974 54.6508C110.207 54.6508 110.403 54.7348 110.562 54.9028C110.73 55.0708 110.814 55.2761 110.814 55.5188C110.814 55.7615 110.73 55.9668 110.562 56.1348C110.403 56.3028 110.207 56.3868 109.974 56.3868ZM110.59 57.6328V65.3048H109.316V57.6328H110.59ZM121.999 57.4928C122.932 57.4928 123.688 57.7775 124.267 58.3468C124.846 58.9068 125.135 59.7188 125.135 60.7828V65.3048H123.875V60.9648C123.875 60.1995 123.684 59.6161 123.301 59.2148C122.918 58.8041 122.396 58.5988 121.733 58.5988C121.061 58.5988 120.524 58.8088 120.123 59.2288C119.731 59.6488 119.535 60.2601 119.535 61.0628V65.3048H118.261V57.6328H119.535V58.7248C119.787 58.3328 120.128 58.0295 120.557 57.8148C120.996 57.6001 121.476 57.4928 121.999 57.4928ZM139.716 61.1748C139.716 61.4175 139.702 61.6741 139.674 61.9448H133.542C133.589 62.7008 133.846 63.2935 134.312 63.7228C134.788 64.1428 135.362 64.3528 136.034 64.3528C136.585 64.3528 137.042 64.2268 137.406 63.9748C137.78 63.7135 138.041 63.3681 138.19 62.9388H139.562C139.357 63.6761 138.946 64.2781 138.33 64.7448C137.714 65.2021 136.949 65.4308 136.034 65.4308C135.306 65.4308 134.653 65.2675 134.074 64.9408C133.505 64.6141 133.057 64.1521 132.73 63.5548C132.404 62.9481 132.24 62.2481 132.24 61.4548C132.24 60.6615 132.399 59.9661 132.716 59.3688C133.034 58.7715 133.477 58.3141 134.046 57.9968C134.625 57.6701 135.288 57.5068 136.034 57.5068C136.762 57.5068 137.406 57.6655 137.966 57.9828C138.526 58.3001 138.956 58.7388 139.254 59.2988C139.562 59.8495 139.716 60.4748 139.716 61.1748ZM138.4 60.9088C138.4 60.4235 138.293 60.0081 138.078 59.6628C137.864 59.3081 137.57 59.0421 137.196 58.8648C136.832 58.6781 136.426 58.5848 135.978 58.5848C135.334 58.5848 134.784 58.7901 134.326 59.2008C133.878 59.6115 133.622 60.1808 133.556 60.9088H138.4ZM159.294 57.5068C159.957 57.5068 160.536 57.6515 161.03 57.9408C161.534 58.2301 161.908 58.5941 162.15 59.0328V57.6328H163.438V65.4728C163.438 66.1728 163.289 66.7935 162.99 67.3348C162.692 67.8855 162.262 68.3148 161.702 68.6228C161.152 68.9308 160.508 69.0848 159.77 69.0848C158.762 69.0848 157.922 68.8468 157.25 68.3708C156.578 67.8948 156.182 67.2461 156.06 66.4248H157.32C157.46 66.8915 157.75 67.2648 158.188 67.5448C158.627 67.8341 159.154 67.9788 159.77 67.9788C160.47 67.9788 161.04 67.7595 161.478 67.3208C161.926 66.8821 162.15 66.2661 162.15 65.4728V63.8628C161.898 64.3108 161.525 64.6841 161.03 64.9828C160.536 65.2815 159.957 65.4308 159.294 65.4308C158.613 65.4308 157.992 65.2628 157.432 64.9268C156.882 64.5908 156.448 64.1195 156.13 63.5128C155.813 62.9061 155.654 62.2155 155.654 61.4408C155.654 60.6568 155.813 59.9708 156.13 59.3828C156.448 58.7855 156.882 58.3235 157.432 57.9968C157.992 57.6701 158.613 57.5068 159.294 57.5068ZM162.15 61.4548C162.15 60.8761 162.034 60.3721 161.8 59.9428C161.567 59.5135 161.25 59.1868 160.848 58.9628C160.456 58.7295 160.022 58.6128 159.546 58.6128C159.07 58.6128 158.636 58.7248 158.244 58.9488C157.852 59.1728 157.54 59.4995 157.306 59.9288C157.073 60.3581 156.956 60.8621 156.956 61.4408C156.956 62.0288 157.073 62.5421 157.306 62.9808C157.54 63.4101 157.852 63.7415 158.244 63.9748C158.636 64.1988 159.07 64.3108 159.546 64.3108C160.022 64.3108 160.456 64.1988 160.848 63.9748C161.25 63.7415 161.567 63.4101 161.8 62.9808C162.034 62.5421 162.15 62.0335 162.15 61.4548ZM172.365 58.8788C172.589 58.4401 172.907 58.0995 173.317 57.8568C173.737 57.6141 174.246 57.4928 174.843 57.4928V58.8088H174.507C173.079 58.8088 172.365 59.5835 172.365 61.1328V65.3048H171.091V57.6328H172.365V58.8788ZM185.16 65.4308C184.441 65.4308 183.788 65.2675 183.2 64.9408C182.621 64.6141 182.164 64.1521 181.828 63.5548C181.501 62.9481 181.338 62.2481 181.338 61.4548C181.338 60.6708 181.506 59.9801 181.842 59.3828C182.187 58.7761 182.654 58.3141 183.242 57.9968C183.83 57.6701 184.488 57.5068 185.216 57.5068C185.944 57.5068 186.602 57.6701 187.19 57.9968C187.778 58.3141 188.24 58.7715 188.576 59.3688C188.921 59.9661 189.094 60.6615 189.094 61.4548C189.094 62.2481 188.917 62.9481 188.562 63.5548C188.217 64.1521 187.745 64.6141 187.148 64.9408C186.551 65.2675 185.888 65.4308 185.16 65.4308ZM185.16 64.3108C185.617 64.3108 186.047 64.2035 186.448 63.9888C186.849 63.7741 187.171 63.4521 187.414 63.0228C187.666 62.5935 187.792 62.0708 187.792 61.4548C187.792 60.8388 187.671 60.3161 187.428 59.8868C187.185 59.4575 186.868 59.1401 186.476 58.9348C186.084 58.7201 185.659 58.6128 185.202 58.6128C184.735 58.6128 184.306 58.7201 183.914 58.9348C183.531 59.1401 183.223 59.4575 182.99 59.8868C182.757 60.3161 182.64 60.8388 182.64 61.4548C182.64 62.0801 182.752 62.6075 182.976 63.0368C183.209 63.4661 183.517 63.7881 183.9 64.0028C184.283 64.2081 184.703 64.3108 185.16 64.3108ZM195.793 61.4548C195.793 60.6615 195.952 59.9708 196.269 59.3828C196.586 58.7855 197.025 58.3235 197.585 57.9968C198.154 57.6701 198.803 57.5068 199.531 57.5068C200.474 57.5068 201.248 57.7355 201.855 58.1928C202.471 58.6501 202.877 59.2848 203.073 60.0968H201.701C201.57 59.6301 201.314 59.2615 200.931 58.9908C200.558 58.7201 200.091 58.5848 199.531 58.5848C198.803 58.5848 198.215 58.8368 197.767 59.3408C197.319 59.8355 197.095 60.5401 197.095 61.4548C197.095 62.3788 197.319 63.0928 197.767 63.5968C198.215 64.1008 198.803 64.3528 199.531 64.3528C200.091 64.3528 200.558 64.2221 200.931 63.9608C201.304 63.6995 201.561 63.3261 201.701 62.8408H203.073C202.868 63.6248 202.457 64.2548 201.841 64.7308C201.225 65.1975 200.455 65.4308 199.531 65.4308C198.803 65.4308 198.154 65.2675 197.585 64.9408C197.025 64.6141 196.586 64.1521 196.269 63.5548C195.952 62.9575 195.793 62.2575 195.793 61.4548ZM217.273 61.1748C217.273 61.4175 217.259 61.6741 217.231 61.9448H211.099C211.145 62.7008 211.402 63.2935 211.869 63.7228C212.345 64.1428 212.919 64.3528 213.591 64.3528C214.141 64.3528 214.599 64.2268 214.963 63.9748C215.336 63.7135 215.597 63.3681 215.747 62.9388H217.119C216.913 63.6761 216.503 64.2781 215.887 64.7448C215.271 65.2021 214.505 65.4308 213.591 65.4308C212.863 65.4308 212.209 65.2675 211.631 64.9408C211.061 64.6141 210.613 64.1521 210.287 63.5548C209.96 62.9481 209.797 62.2481 209.797 61.4548C209.797 60.6615 209.955 59.9661 210.273 59.3688C210.59 58.7715 211.033 58.3141 211.603 57.9968C212.181 57.6701 212.844 57.5068 213.591 57.5068C214.319 57.5068 214.963 57.6655 215.523 57.9828C216.083 58.3001 216.512 58.7388 216.811 59.2988C217.119 59.8495 217.273 60.4748 217.273 61.1748ZM215.957 60.9088C215.957 60.4235 215.849 60.0081 215.635 59.6628C215.42 59.3081 215.126 59.0421 214.753 58.8648C214.389 58.6781 213.983 58.5848 213.535 58.5848C212.891 58.5848 212.34 58.7901 211.883 59.2008C211.435 59.6115 211.178 60.1808 211.113 60.9088H215.957ZM225.728 58.8788C225.952 58.4401 226.27 58.0995 226.68 57.8568C227.1 57.6141 227.609 57.4928 228.206 57.4928V58.8088H227.87C226.442 58.8088 225.728 59.5835 225.728 61.1328V65.3048H224.454V57.6328H225.728V58.8788ZM235.835 56.3868C235.592 56.3868 235.387 56.3028 235.219 56.1348C235.051 55.9668 234.967 55.7615 234.967 55.5188C234.967 55.2761 235.051 55.0708 235.219 54.9028C235.387 54.7348 235.592 54.6508 235.835 54.6508C236.068 54.6508 236.264 54.7348 236.423 54.9028C236.591 55.0708 236.675 55.2761 236.675 55.5188C236.675 55.7615 236.591 55.9668 236.423 56.1348C236.264 56.3028 236.068 56.3868 235.835 56.3868ZM236.451 57.6328V65.3048H235.177V57.6328H236.451ZM251.122 61.1748C251.122 61.4175 251.108 61.6741 251.08 61.9448H244.948C244.995 62.7008 245.252 63.2935 245.718 63.7228C246.194 64.1428 246.768 64.3528 247.44 64.3528C247.991 64.3528 248.448 64.2268 248.812 63.9748C249.186 63.7135 249.447 63.3681 249.596 62.9388H250.968C250.763 63.6761 250.352 64.2781 249.736 64.7448C249.12 65.2021 248.355 65.4308 247.44 65.4308C246.712 65.4308 246.059 65.2675 245.48 64.9408C244.911 64.6141 244.463 64.1521 244.136 63.5548C243.81 62.9481 243.646 62.2481 243.646 61.4548C243.646 60.6615 243.805 59.9661 244.122 59.3688C244.44 58.7715 244.883 58.3141 245.452 57.9968C246.031 57.6701 246.694 57.5068 247.44 57.5068C248.168 57.5068 248.812 57.6655 249.372 57.9828C249.932 58.3001 250.362 58.7388 250.66 59.2988C250.968 59.8495 251.122 60.4748 251.122 61.1748ZM249.806 60.9088C249.806 60.4235 249.699 60.0081 249.484 59.6628C249.27 59.3081 248.976 59.0421 248.602 58.8648C248.238 58.6781 247.832 58.5848 247.384 58.5848C246.74 58.5848 246.19 58.7901 245.732 59.2008C245.284 59.6115 245.028 60.1808 244.962 60.9088H249.806ZM259.858 58.6828V63.2048C259.858 63.5781 259.937 63.8441 260.096 64.0028C260.255 64.1521 260.53 64.2268 260.922 64.2268H261.86V65.3048H260.712C260.003 65.3048 259.471 65.1415 259.116 64.8148C258.761 64.4881 258.584 63.9515 258.584 63.2048V58.6828H257.59V57.6328H258.584V55.7008H259.858V57.6328H261.86V58.6828H259.858Z" fill="white"/>
</svg>
