<svg width="21" height="21" viewBox="0 0 21 21" fill="none" xmlns="http://www.w3.org/2000/svg">
<path d="M10.5073 0.0756836C8.52952 0.0756836 6.59612 0.662173 4.95163 1.76099C3.30713 2.8598 2.02541 4.42159 1.26853 6.24885C0.511657 8.07611 0.313624 10.0868 0.699476 12.0266C1.08533 13.9664 2.03774 15.7482 3.43626 17.1468C4.83479 18.5453 6.61662 19.4977 8.55643 19.8835C10.4962 20.2694 12.5069 20.0714 14.3342 19.3145C16.1614 18.5576 17.7232 17.2759 18.822 15.6314C19.9208 13.9869 20.5073 12.0535 20.5073 10.0757C20.5073 8.76246 20.2487 7.4621 19.7461 6.24885C19.2436 5.03559 18.507 3.9332 17.5784 3.00462C16.6498 2.07603 15.5474 1.33944 14.3342 0.836888C13.1209 0.334341 11.8205 0.0756836 10.5073 0.0756836ZM10.5073 18.0757C8.92508 18.0757 7.37836 17.6065 6.06277 16.7274C4.74717 15.8484 3.72179 14.599 3.11629 13.1372C2.51079 11.6753 2.35237 10.0668 2.66105 8.51496C2.96973 6.96311 3.73165 5.53765 4.85047 4.41883C5.96929 3.30001 7.39476 2.53808 8.94661 2.2294C10.4985 1.92072 12.107 2.07915 13.5688 2.68465C15.0306 3.29015 16.28 4.31553 17.1591 5.63112C18.0381 6.94671 18.5073 8.49343 18.5073 10.0757C18.5073 12.1974 17.6645 14.2322 16.1642 15.7325C14.6639 17.2328 12.6291 18.0757 10.5073 18.0757Z" fill="#181725"/>
<path d="M10.5073 15.0757C11.0596 15.0757 11.5073 14.628 11.5073 14.0757C11.5073 13.5234 11.0596 13.0757 10.5073 13.0757C9.95504 13.0757 9.50732 13.5234 9.50732 14.0757C9.50732 14.628 9.95504 15.0757 10.5073 15.0757Z" fill="#181725"/>
<path d="M10.5073 5.07568C10.2421 5.07568 9.98775 5.18104 9.80022 5.36858C9.61268 5.55611 9.50732 5.81047 9.50732 6.07568V11.0757C9.50732 11.3409 9.61268 11.5953 9.80022 11.7828C9.98775 11.9703 10.2421 12.0757 10.5073 12.0757C10.7725 12.0757 11.0269 11.9703 11.2144 11.7828C11.402 11.5953 11.5073 11.3409 11.5073 11.0757V6.07568C11.5073 5.81047 11.402 5.55611 11.2144 5.36858C11.0269 5.18104 10.7725 5.07568 10.5073 5.07568Z" fill="#181725"/>
</svg>
