<svg width="19" height="21" viewBox="0 0 19 21" fill="none" xmlns="http://www.w3.org/2000/svg">
<path d="M18.0268 13.3541L16.2269 11.5442V7.08449C16.2509 5.42842 15.6748 3.8196 14.6052 2.5551C13.5355 1.29061 12.0444 0.45583 10.4073 0.20491C9.45716 0.079785 8.49127 0.158728 7.57406 0.436472C6.65686 0.714216 5.80944 1.18437 5.08833 1.81557C4.36723 2.44678 3.78903 3.2245 3.39232 4.09687C2.99561 4.96924 2.7895 5.91617 2.78775 6.87451V11.5442L0.987857 13.3541C0.761777 13.584 0.608464 13.8754 0.547084 14.1919C0.485704 14.5084 0.518982 14.836 0.642756 15.1336C0.76653 15.4313 0.975308 15.686 1.24299 15.8656C1.51068 16.0453 1.82539 16.1421 2.14779 16.1439H5.50758V16.4839C5.55429 17.4991 6.00151 18.4543 6.75124 19.1403C7.50096 19.8263 8.49206 20.1871 9.50734 20.1437C10.5226 20.1871 11.5137 19.8263 12.2635 19.1403C13.0132 18.4543 13.4604 17.4991 13.5071 16.4839V16.1439H16.8669C17.1893 16.1421 17.504 16.0453 17.7717 15.8656C18.0394 15.686 18.2482 15.4313 18.3719 15.1336C18.4957 14.836 18.529 14.5084 18.4676 14.1919C18.4062 13.8754 18.2529 13.584 18.0268 13.3541ZM11.5072 16.4839C11.4518 16.9649 11.2129 17.4059 10.8403 17.7151C10.4678 18.0244 9.9903 18.1779 9.50734 18.1438C9.02439 18.1779 8.5469 18.0244 8.17435 17.7151C7.8018 17.4059 7.56292 16.9649 7.50746 16.4839V16.1439H11.5072V16.4839ZM3.01773 14.1441L4.19766 12.9641C4.38482 12.7781 4.53331 12.5568 4.63456 12.3131C4.73581 12.0694 4.78784 11.8081 4.78763 11.5442V6.87451C4.78817 6.19995 4.933 5.53331 5.2124 4.91934C5.49179 4.30536 5.89928 3.75825 6.40753 3.31472C6.90892 2.86043 7.50304 2.52052 8.14877 2.31851C8.79449 2.11651 9.47641 2.05723 10.1473 2.14479C11.3037 2.33256 12.3534 2.93176 13.103 3.83207C13.8527 4.73238 14.2518 5.8732 14.2271 7.0445V11.5442C14.2255 11.8074 14.276 12.0683 14.3755 12.312C14.475 12.5557 14.6217 12.7773 14.807 12.9641L15.997 14.1441H3.01773Z" fill="#181725"/>
</svg>
