<svg width="23" height="21" viewBox="0 0 23 21" fill="none" xmlns="http://www.w3.org/2000/svg">
<path d="M8.93223 20.5181C8.28368 20.5181 7.66169 20.2604 7.2031 19.8018C6.7445 19.3432 6.48687 18.7212 6.48687 18.0727C6.48687 17.4241 6.7445 16.8021 7.2031 16.3436C7.66169 15.885 8.28368 15.6273 8.93223 15.6273C9.58078 15.6273 10.2028 15.885 10.6614 16.3436C11.12 16.8021 11.3776 17.4241 11.3776 18.0727C11.3776 18.7212 11.12 19.3432 10.6614 19.8018C10.2028 20.2604 9.58078 20.5181 8.93223 20.5181ZM17.491 20.5181C16.8425 20.5181 16.2205 20.2604 15.7619 19.8018C15.3033 19.3432 15.0456 18.7212 15.0456 18.0727C15.0456 17.4241 15.3033 16.8021 15.7619 16.3436C16.2205 15.885 16.8425 15.6273 17.491 15.6273C18.1396 15.6273 18.7615 15.885 19.2201 16.3436C19.6787 16.8021 19.9364 17.4241 19.9364 18.0727C19.9364 18.7212 19.6787 19.3432 19.2201 19.8018C18.7615 20.2604 18.1396 20.5181 17.491 20.5181ZM1.54968 3.30636C1.24445 3.29651 0.955016 3.16834 0.742584 2.94895C0.530152 2.72955 0.411377 2.43614 0.411377 2.13075C0.411377 1.82536 0.530152 1.53195 0.742584 1.31255C0.955016 1.09316 1.24445 0.964984 1.54968 0.955139L2.95699 0.955139C4.05984 0.955139 5.01354 1.72054 5.25318 2.7965L6.7852 9.69487C7.02485 10.7708 7.97854 11.5362 9.0814 11.5362H18.2662L20.0293 4.48135H8.60333C8.30097 4.46756 8.01557 4.33774 7.80649 4.11889C7.5974 3.90005 7.48073 3.60903 7.48073 3.30636C7.48073 3.00369 7.5974 2.71266 7.80649 2.49382C8.01557 2.27498 8.30097 2.14516 8.60333 2.13136H20.0293C20.3867 2.13125 20.7395 2.21264 21.0607 2.36933C21.382 2.52603 21.6633 2.7539 21.8832 3.03564C22.1032 3.31737 22.2561 3.64554 22.3301 3.99521C22.4042 4.34488 22.3976 4.70684 22.3108 5.05357L20.5477 12.106C20.4206 12.6149 20.127 13.0666 19.7136 13.3894C19.3002 13.7122 18.7907 13.8875 18.2662 13.8874H9.0814C8.0113 13.8876 6.97316 13.5227 6.13842 12.8532C5.30368 12.1836 4.72228 11.2494 4.49023 10.2047L2.95699 3.30636H1.54968Z" fill="#181725"/>
</svg>
