<svg width="19" height="23" viewBox="0 0 19 23" fill="none" xmlns="http://www.w3.org/2000/svg">
<path fill-rule="evenodd" clip-rule="evenodd" d="M1.10205 9.46259C1.11782 4.78077 4.89375 0.998304 9.53581 1.01421C14.1779 1.03012 17.9282 4.83837 17.9125 9.52019V9.61619C17.8553 12.6595 16.1705 15.4725 14.1049 17.671C12.9236 18.9082 11.6044 20.0035 10.1736 20.9351C9.791 21.2689 9.22351 21.2689 8.84093 20.9351C6.70796 19.5349 4.83592 17.7671 3.31044 15.7125C1.95081 13.9208 1.17886 11.7462 1.10205 9.49139L1.10205 9.46259Z" stroke="#181725" stroke-width="2" stroke-linecap="round" stroke-linejoin="round"/>
<path fill-rule="evenodd" clip-rule="evenodd" d="M9.50734 11.9872C10.8005 11.9872 11.8489 10.9299 11.8489 9.6256C11.8489 8.32134 10.8005 7.26404 9.50734 7.26404C8.21416 7.26404 7.16583 8.32134 7.16583 9.6256C7.16583 10.9299 8.21416 11.9872 9.50734 11.9872Z" stroke="#181725" stroke-width="2" stroke-linecap="round" stroke-linejoin="round"/>
</svg>
