<svg width="29" height="19" viewBox="0 0 29 19" fill="none" xmlns="http://www.w3.org/2000/svg">
<path d="M18.2713 14.2375C19.0592 14.2375 19.8394 14.0823 20.5674 13.7808C21.2953 13.4793 21.9567 13.0373 22.5139 12.4802C23.071 11.923 23.513 11.2616 23.8145 10.5336C24.1161 9.80569 24.2713 9.02547 24.2713 8.23754C24.2713 7.44961 24.1161 6.66939 23.8145 5.94144C23.513 5.21349 23.071 4.55205 22.5139 3.9949C21.9567 3.43775 21.2953 2.99579 20.5674 2.69426C19.8394 2.39274 19.0592 2.23754 18.2713 2.23754C16.68 2.23754 15.1538 2.86968 14.0286 3.9949C12.9034 5.12012 12.2713 6.64624 12.2713 8.23754C12.2713 9.82884 12.9034 11.355 14.0286 12.4802C15.1538 13.6054 16.68 14.2375 18.2713 14.2375ZM24.5913 13.1435L28.1713 16.7235C28.2667 16.8159 28.3428 16.9263 28.3951 17.0483C28.4474 17.1703 28.4749 17.3016 28.476 17.4344C28.4771 17.5671 28.4517 17.6988 28.4013 17.8217C28.3509 17.9445 28.2766 18.0561 28.1826 18.1499C28.0887 18.2438 27.977 18.3179 27.854 18.3681C27.7311 18.4183 27.5994 18.4435 27.4666 18.4423C27.3339 18.441 27.2027 18.4134 27.0807 18.3609C26.9587 18.3084 26.8484 18.2321 26.7563 18.1365L23.1763 14.5565C21.5687 15.8044 19.546 16.3927 17.52 16.2017C15.494 16.0108 13.6169 15.0549 12.2708 13.5286C10.9248 12.0023 10.2109 10.0205 10.2747 7.98646C10.3384 5.95244 11.1749 4.01916 12.6139 2.58019C14.0529 1.14121 15.9862 0.304708 18.0202 0.240967C20.0542 0.177226 22.0361 0.891038 23.5623 2.23709C25.0886 3.58315 26.0445 5.46025 26.2355 7.48629C26.4264 9.51233 25.8381 11.535 24.5903 13.1425L24.5913 13.1435Z" fill="#181725"/>
<rect x="0.126709" y="0.237038" width="8.85499" height="2.39923" rx="1.19961" fill="#181725"/>
<rect x="0.126709" y="7.67523" width="6.46414" height="2.39923" rx="1.19961" fill="#181725"/>
<rect x="0.126709" y="15.1138" width="8.85499" height="2.39923" rx="1.19961" fill="#181725"/>
</svg>
