<svg width="21" height="21" viewBox="0 0 21 21" fill="none" xmlns="http://www.w3.org/2000/svg">
<path d="M10.5073 0.854004C8.52952 0.854004 6.59612 1.44049 4.95163 2.53931C3.30713 3.63812 2.02541 5.19991 1.26853 7.02717C0.511657 8.85443 0.313624 10.8651 0.699476 12.8049C1.08533 14.7447 2.03774 16.5265 3.43626 17.9251C4.83479 19.3236 6.61662 20.276 8.55643 20.6619C10.4962 21.0477 12.5069 20.8497 14.3342 20.0928C16.1614 19.3359 17.7232 18.0542 18.822 16.4097C19.9208 14.7652 20.5073 12.8318 20.5073 10.854C20.5073 9.54078 20.2487 8.24043 19.7461 7.02717C19.2436 5.81391 18.507 4.71152 17.5784 3.78294C16.6498 2.85435 15.5474 2.11776 14.3342 1.61521C13.1209 1.11266 11.8205 0.854004 10.5073 0.854004ZM10.5073 18.854C8.92508 18.854 7.37836 18.3848 6.06277 17.5058C4.74717 16.6267 3.72179 15.3773 3.11629 13.9155C2.51079 12.4537 2.35237 10.8451 2.66105 9.29328C2.96973 7.74143 3.73165 6.31597 4.85047 5.19715C5.96929 4.07833 7.39476 3.3164 8.94661 3.00772C10.4985 2.69904 12.107 2.85747 13.5688 3.46297C15.0306 4.06847 16.28 5.09385 17.1591 6.40944C18.0381 7.72504 18.5073 9.27175 18.5073 10.854C18.5073 12.9757 17.6645 15.0106 16.1642 16.5109C14.6639 18.0112 12.6291 18.854 10.5073 18.854Z" fill="#181725"/>
<path d="M10.7249 4.85407C9.7966 4.85407 8.90636 5.22282 8.24998 5.8792C7.5936 6.53557 7.22485 7.42581 7.22485 8.35407C7.22485 8.61929 7.33021 8.87364 7.51775 9.06118C7.70528 9.24871 7.95964 9.35407 8.22485 9.35407C8.49007 9.35407 8.74442 9.24871 8.93196 9.06118C9.1195 8.87364 9.22485 8.61929 9.22485 8.35407C9.22485 8.0574 9.31283 7.76739 9.47765 7.52072C9.64247 7.27404 9.87674 7.08178 10.1508 6.96825C10.4249 6.85472 10.7265 6.82502 11.0175 6.88289C11.3085 6.94077 11.5757 7.08363 11.7855 7.29341C11.9953 7.50319 12.1382 7.77046 12.196 8.06144C12.2539 8.35241 12.2242 8.65401 12.1107 8.9281C11.9971 9.20219 11.8049 9.43645 11.5582 9.60128C11.3115 9.7661 11.0215 9.85407 10.7249 9.85407C10.4596 9.85407 10.2053 9.95943 10.0177 10.147C9.83021 10.3345 9.72485 10.5889 9.72485 10.8541V12.8541C9.72485 13.1193 9.83021 13.3736 10.0177 13.5612C10.2053 13.7487 10.4596 13.8541 10.7249 13.8541C10.9901 13.8541 11.2444 13.7487 11.432 13.5612C11.6195 13.3736 11.7249 13.1193 11.7249 12.8541V11.6941C12.533 11.4581 13.2285 10.9379 13.6833 10.2295C14.1382 9.52109 14.3216 8.67214 14.1998 7.83914C14.078 7.00613 13.6592 6.24523 13.0206 5.69666C12.3821 5.1481 11.5667 4.84885 10.7249 4.85407Z" fill="#181725"/>
<path d="M10.7249 16.854C11.2771 16.854 11.7249 16.4063 11.7249 15.854C11.7249 15.3017 11.2771 14.854 10.7249 14.854C10.1726 14.854 9.72485 15.3017 9.72485 15.854C9.72485 16.4063 10.1726 16.854 10.7249 16.854Z" fill="#181725"/>
</svg>
