<svg width="24" height="24" viewBox="0 0 24 24" fill="none" xmlns="http://www.w3.org/2000/svg">
<g clip-path="url(#clip0_1_273)">
<path d="M4.68544 11.0097L12.5095 18.8338L20.3336 11.0097C21.0254 10.318 21.414 9.37975 21.414 8.40147C21.414 7.42319 21.0254 6.48498 20.3336 5.79323C19.9911 5.45071 19.5845 5.17901 19.137 4.99364C18.6894 4.80827 18.2098 4.71286 17.7254 4.71286C16.7471 4.71286 15.8089 5.10148 15.1172 5.79323L12.5095 8.40085L9.90192 5.79446C9.20841 5.11199 8.27332 4.73121 7.30033 4.73506C6.32734 4.7389 5.39529 5.12707 4.7072 5.815C4.01911 6.50293 3.63073 7.43489 3.62665 8.40787C3.62257 9.38086 4.00314 10.316 4.68544 11.0097ZM11.6403 4.05359L12.5095 4.92279L13.3787 4.05359C13.9487 3.47867 14.6265 3.02197 15.3734 2.70973C16.1203 2.39748 16.9215 2.23583 17.731 2.23406C18.5405 2.23229 19.3424 2.39043 20.0906 2.6994C20.8389 3.00837 21.5187 3.46209 22.0911 4.03451C22.6636 4.60693 23.1173 5.28677 23.4262 6.03501C23.7352 6.78325 23.8934 7.58514 23.8916 8.39466C23.8898 9.20418 23.7282 10.0054 23.4159 10.7523C23.1037 11.4991 22.647 12.177 22.0721 12.7469L13.38 21.4402C13.2658 21.5545 13.1302 21.6452 12.981 21.7071C12.8317 21.7689 12.6717 21.8008 12.5102 21.8008C12.3486 21.8008 12.1886 21.7689 12.0394 21.7071C11.8901 21.6452 11.7545 21.5545 11.6403 21.4402L2.94702 12.7481C2.36429 12.18 1.90015 11.5019 1.58153 10.7531C1.26291 10.0042 1.09616 9.19957 1.09095 8.38577C1.08573 7.57198 1.24216 6.76525 1.55116 6.01238C1.86015 5.25951 2.31556 4.57549 2.89097 4C3.46638 3.42451 4.15034 2.969 4.90316 2.6599C5.65599 2.3508 6.4627 2.19426 7.27649 2.19935C8.09029 2.20445 8.89497 2.37109 9.64386 2.6896C10.3928 3.00811 11.0709 3.47216 11.6391 4.05481L11.6403 4.05359Z" fill="#181725"/>
</g>
<defs>
<clipPath id="clip0_1_273">
<rect width="24" height="24" fill="white" transform="translate(-0.00878906)"/>
</clipPath>
</defs>
</svg>
