<svg width="21" height="16" viewBox="0 0 21 16" fill="none" xmlns="http://www.w3.org/2000/svg">
<path d="M2.50732 0.485229H18.5073C19.0088 0.485229 19.4912 0.699206 19.8481 1.08191C20.2053 1.46499 20.4077 1.98656 20.4077 2.53113V13.2567C20.4076 13.8012 20.2052 14.322 19.8481 14.705C19.4912 15.0877 19.0088 15.3016 18.5073 15.3016H2.50732C2.00581 15.3016 1.52344 15.0877 1.1665 14.705C0.809414 14.322 0.607021 13.8012 0.606934 13.2567V2.53113C0.606934 1.98656 0.809336 1.46499 1.1665 1.08191C1.52343 0.699207 2.00586 0.485229 2.50732 0.485229ZM2.40771 13.3563H18.6069V2.43054H2.40771V13.3563ZM11.5073 7.99402H16.5073C16.7437 7.99402 16.9717 8.09454 17.1411 8.27625C17.3106 8.45808 17.4076 8.70579 17.4077 8.9657C17.4077 9.2258 17.3107 9.47419 17.1411 9.65613C16.9717 9.83783 16.7437 9.93835 16.5073 9.93835H11.5073C11.271 9.93835 11.0429 9.83783 10.8735 9.65613C10.7039 9.47419 10.6069 9.2258 10.6069 8.9657C10.607 8.70579 10.7041 8.45808 10.8735 8.27625C11.0429 8.09454 11.271 7.99402 11.5073 7.99402ZM11.5073 4.77625H16.5073C16.7437 4.77625 16.9717 4.87677 17.1411 5.05847C17.3107 5.24041 17.4077 5.48882 17.4077 5.7489C17.4076 6.00881 17.3106 6.25653 17.1411 6.43835C16.9717 6.62006 16.7437 6.72058 16.5073 6.72058H11.5073C11.271 6.72058 11.0429 6.62006 10.8735 6.43835C10.704 6.25653 10.6071 6.00881 10.6069 5.7489C10.6069 5.48882 10.7039 5.24041 10.8735 5.05847C11.0429 4.87677 11.271 4.77625 11.5073 4.77625Z" fill="#181725" stroke="white" stroke-width="0.2"/>
<g clip-path="url(#clip0_1_1299)">
<path d="M7.25752 5.58128V6.14398C7.25752 6.44839 7.11994 6.73436 6.88145 6.9373C6.6338 7.14947 6.31276 7.26939 5.97338 7.26939C5.634 7.26939 5.30379 7.14947 5.06531 6.9373C4.82683 6.73436 4.68924 6.44839 4.68924 6.14398V5.58128C4.68924 5.28609 4.82683 5.00013 5.06531 4.78796C5.30379 4.57579 5.634 4.45587 5.97338 4.45587C6.31276 4.45587 6.6338 4.57579 6.88145 4.78796C7.11994 5.00013 7.25752 5.28609 7.25752 5.58128Z" fill="#181725"/>
<path d="M8.22066 8.90206V9.36329C8.22066 9.58468 8.1106 9.80608 7.93632 9.96289C7.75287 10.1197 7.50521 10.212 7.25756 10.212H4.68927C4.43244 10.212 4.18479 10.1197 4.01051 9.96289C3.82706 9.80608 3.72617 9.58468 3.72617 9.36329V8.87439C3.72617 8.56075 3.83624 8.24711 4.03803 7.98882C4.23982 7.73053 4.52417 7.52759 4.85438 7.40767C4.90024 7.39845 4.93693 7.38922 4.98279 7.38922C5.02865 7.38922 5.06534 7.39845 5.11121 7.40767H6.75307C6.77142 7.40767 6.78059 7.40767 6.78976 7.4169C6.78976 7.40767 6.79894 7.40767 6.79894 7.40767C6.94569 7.39845 7.03742 7.40767 7.04659 7.40767C7.39514 7.52759 7.68866 7.73053 7.89963 7.99805C8.10142 8.26556 8.22066 8.5792 8.22066 8.90206Z" fill="#181725"/>
</g>
<defs>
<clipPath id="clip0_1_1299">
<rect width="6" height="7.68429" fill="white" transform="translate(3.50732 4.45587)"/>
</clipPath>
</defs>
</svg>
