<svg width="21" height="23" viewBox="0 0 21 23" fill="none" xmlns="http://www.w3.org/2000/svg">
<path d="M4.50726 1.14722L1.50726 5.14722V19.1472C1.50726 19.6776 1.71798 20.1864 2.09305 20.5614C2.46812 20.9365 2.97683 21.1472 3.50726 21.1472H17.5073C18.0377 21.1472 18.5464 20.9365 18.9215 20.5614C19.2965 20.1864 19.5073 19.6776 19.5073 19.1472V5.14722L16.5073 1.14722H4.50726Z" stroke="#181725" stroke-width="2" stroke-linecap="round" stroke-linejoin="round"/>
<path d="M1.50726 5.14722H19.5073" stroke="#181725" stroke-width="2" stroke-linecap="round" stroke-linejoin="round"/>
<path d="M14.5073 9.14722C14.5073 10.2081 14.0858 11.2255 13.3357 11.9756C12.5855 12.7258 11.5681 13.1472 10.5073 13.1472C9.4464 13.1472 8.42898 12.7258 7.67884 11.9756C6.92869 11.2255 6.50726 10.2081 6.50726 9.14722" stroke="#181725" stroke-width="2" stroke-linecap="round" stroke-linejoin="round"/>
</svg>
