<svg width="23" height="23" viewBox="0 0 23 23" fill="none" xmlns="http://www.w3.org/2000/svg">
<path d="M13.8467 1.03884C14.1317 0.765291 14.5942 0.765237 14.8792 1.03884L17.0548 3.12854C17.3397 3.40225 17.3397 3.84646 17.0548 4.12028C16.4398 4.71103 16.4399 5.67258 17.0548 6.26342C17.6699 6.85425 18.6709 6.85423 19.286 6.26342C19.571 5.98989 20.0335 5.98986 20.3185 6.26342L22.494 8.35312C22.779 8.62684 22.7789 9.07105 22.494 9.34487L9.16743 22.1455C8.8824 22.4192 8.41995 22.4193 8.13494 22.1455L5.95939 20.0558C5.67458 19.7821 5.67459 19.3378 5.95939 19.0641C6.57449 18.4733 6.57449 17.5118 5.95939 16.921C5.34427 16.3304 4.34318 16.3302 3.72819 16.921C3.44316 17.1946 2.98071 17.1947 2.6957 16.921L0.520149 14.8313C0.235298 14.5575 0.235335 14.1133 0.520149 13.8395L13.8467 1.03884ZM3.27674 15.4956C4.44414 14.8196 5.98529 14.9626 6.99188 15.9292C7.99843 16.896 8.14703 18.3763 7.44333 19.4977L8.65189 20.6586L11.5634 17.862L10.4478 16.7904C10.1629 16.5167 10.1624 16.0731 10.4471 15.7993C10.7322 15.5256 11.1946 15.5255 11.4796 15.7993L12.5952 16.8709L20.946 8.84967L19.7374 7.6888C18.57 8.36478 17.0289 8.222 16.0223 7.25517C15.0159 6.28828 14.8671 4.808 15.5708 3.68665L14.363 2.52645L6.01221 10.5477L7.12781 11.6193C7.41283 11.893 7.41283 12.3372 7.12781 12.611C6.84276 12.8845 6.38098 12.884 6.09602 12.6103L4.98042 11.5387L2.06888 14.3354L3.27674 15.4956Z" fill="#181725" stroke="#181725" stroke-width="0.3"/>
<path d="M7.72718 13.1864C8.01214 12.9127 8.47473 12.9127 8.75967 13.1864L9.8471 14.231C10.1321 14.5047 10.1321 14.949 9.8471 15.2227C9.56214 15.4964 9.09958 15.4964 8.81461 15.2227L7.72718 14.1782C7.44227 13.9045 7.44223 13.4602 7.72718 13.1864Z" fill="#181725" stroke="#181725" stroke-width="0.3"/>
</svg>
