<svg width="25" height="25" viewBox="0 0 25 25" fill="none" xmlns="http://www.w3.org/2000/svg">
<path d="M5.7063 2.56787H19.7063C20.4887 2.56787 21.239 2.8789 21.7922 3.43213C22.3455 3.98536 22.6565 4.73568 22.6565 5.51807V7.51807C22.6565 8.38529 22.2826 9.16569 21.6858 9.70557L21.6692 9.72119V20.4829C21.6692 21.0001 21.4636 21.4961 21.0979 21.8618C20.7322 22.2275 20.2361 22.4331 19.719 22.4331H12.0793V22.4321L12.0696 22.4341C11.9498 22.4567 11.8282 22.4682 11.7063 22.4683H9.7063C9.58441 22.4682 9.46278 22.4567 9.34302 22.4341L9.33325 22.4829L9.34302 22.4331H5.71704C5.19996 22.433 4.70377 22.2275 4.33813 21.8618C3.97257 21.4961 3.76685 21 3.76685 20.4829V9.64209L3.71411 9.69385C3.41807 9.42322 3.17953 9.09512 3.01489 8.729C2.84376 8.34832 2.75552 7.93545 2.7561 7.51807V5.51807C2.7561 4.73568 3.06713 3.98536 3.62036 3.43213C4.17359 2.8789 4.92391 2.56787 5.7063 2.56787ZM15.6731 9.71729C15.1328 10.2019 14.432 10.4693 13.7063 10.4683H11.7063C10.9511 10.4683 10.2606 10.1843 9.7395 9.71729L9.7063 9.68701L9.6731 9.71729C9.13284 10.2019 8.43203 10.4693 7.7063 10.4683H5.66626V20.5327H7.7561V15.5181C7.7561 15.0009 7.9617 14.5049 8.32739 14.1392C8.69309 13.7735 9.18913 13.5679 9.7063 13.5679H11.7063C12.2235 13.5679 12.7195 13.7735 13.0852 14.1392C13.4509 14.5049 13.6565 15.0009 13.6565 15.5181V20.5327H19.7698V10.4683H17.7063C16.9511 10.4683 16.2606 10.1843 15.7395 9.71729L15.7063 9.68701L15.6731 9.71729ZM9.65649 20.5327H11.7063V20.4839H11.7561V15.4683H9.65649V20.5327ZM16.7063 13.5679H17.7063C17.9583 13.5679 18.2 13.668 18.3782 13.8462C18.5563 14.0244 18.6565 14.2661 18.6565 14.5181V17.5181C18.6565 17.77 18.5563 18.0118 18.3782 18.1899C18.2 18.3681 17.9583 18.4683 17.7063 18.4683H16.7063C16.4543 18.4683 16.2126 18.3681 16.0344 18.1899C15.8563 18.0118 15.7561 17.77 15.7561 17.5181V14.5181C15.7561 14.2661 15.8563 14.0244 16.0344 13.8462C16.2126 13.668 16.4543 13.5679 16.7063 13.5679ZM5.7063 4.46826C5.42782 4.46826 5.16102 4.57897 4.96411 4.77588C4.7672 4.97279 4.65649 5.23959 4.65649 5.51807V7.51807C4.65649 7.79654 4.7672 8.06334 4.96411 8.26025C5.16102 8.45717 5.42782 8.56787 5.7063 8.56787H7.7063C7.98478 8.56787 8.25157 8.45717 8.44849 8.26025C8.6454 8.06334 8.7561 7.79654 8.7561 7.51807V4.46826H5.7063ZM10.6565 7.51807C10.6565 7.79654 10.7672 8.06334 10.9641 8.26025C11.161 8.45717 11.4278 8.56787 11.7063 8.56787H13.7063C13.9848 8.56787 14.2516 8.45717 14.4485 8.26025C14.6454 8.06334 14.7561 7.79654 14.7561 7.51807V4.46826H10.6565V7.51807ZM16.6565 7.51807C16.6565 7.79654 16.7672 8.06334 16.9641 8.26025C17.161 8.45717 17.4278 8.56787 17.7063 8.56787H19.7063C19.9848 8.56787 20.2516 8.45717 20.4485 8.26025C20.6454 8.06334 20.7561 7.79654 20.7561 7.51807V5.51807C20.7561 5.23959 20.6454 4.97279 20.4485 4.77588C20.2516 4.57897 19.9848 4.46826 19.7063 4.46826H16.6565V7.51807Z" fill="#53B175" stroke="white" stroke-width="0.1"/>
</svg>
