<svg width="25" height="25" viewBox="0 0 25 25" fill="none" xmlns="http://www.w3.org/2000/svg">
<path d="M8.616 12.5881C8.75683 12.5356 8.90827 12.5083 9.06138 12.5078C9.21449 12.5074 9.36616 12.5337 9.50741 12.5853C9.64867 12.6368 9.77666 12.7126 9.8838 12.8081C9.99094 12.9036 10.0751 13.0168 10.1312 13.1412C10.1873 13.2656 10.2143 13.3985 10.2106 13.5321C10.2069 13.6657 10.1725 13.7974 10.1096 13.9192C10.0466 14.041 9.95626 14.1506 9.84394 14.2415C9.73161 14.3323 9.59957 14.4025 9.45561 14.4481C8.68993 14.7114 8.03277 15.1699 7.56964 15.7638C7.10651 16.3577 6.85885 17.0596 6.85888 17.7781V19.5181C6.85888 19.7833 6.97956 20.0376 7.19438 20.2252C7.40919 20.4127 7.70054 20.5181 8.00433 20.5181H17.1679C17.4717 20.5181 17.763 20.4127 17.9778 20.2252C18.1927 20.0376 18.3133 19.7833 18.3133 19.5181V17.8711C18.3135 17.1295 18.0555 16.4055 17.5735 15.7949C17.0916 15.1843 16.4084 14.716 15.6147 14.4521C15.4698 14.4082 15.3365 14.3394 15.2227 14.2497C15.1089 14.16 15.0169 14.0513 14.9521 13.9299C14.8873 13.8086 14.851 13.6772 14.8455 13.5434C14.84 13.4096 14.8653 13.2763 14.9199 13.1512C14.9745 13.0261 15.0573 12.9119 15.1634 12.8152C15.2695 12.7186 15.3968 12.6416 15.5376 12.5887C15.6785 12.5358 15.8301 12.5081 15.9834 12.5074C16.1367 12.5066 16.2887 12.5326 16.4302 12.5841C17.6577 12.9922 18.7141 13.7164 19.4595 14.6606C20.2049 15.6047 20.6041 16.7244 20.6042 17.8711V19.5181C20.6042 20.3137 20.2422 21.0768 19.5978 21.6394C18.9533 22.202 18.0793 22.5181 17.1679 22.5181H8.00433C7.09296 22.5181 6.21891 22.202 5.57447 21.6394C4.93003 21.0768 4.56799 20.3137 4.56799 19.5181V17.7781C4.56815 16.6582 4.95433 15.5643 5.67628 14.6387C6.39824 13.7131 7.42256 12.9985 8.616 12.5881ZM12.5861 2.51807C13.8013 2.51807 14.9667 2.93949 15.8259 3.68964C16.6852 4.43978 17.1679 5.4572 17.1679 6.51807V8.51807C17.1679 9.57893 16.6852 10.5963 15.8259 11.3465C14.9667 12.0966 13.8013 12.5181 12.5861 12.5181C11.3709 12.5181 10.2056 12.0966 9.3463 11.3465C8.48705 10.5963 8.00433 9.57893 8.00433 8.51807V6.51807C8.00433 5.4572 8.48705 4.43978 9.3463 3.68964C10.2056 2.93949 11.3709 2.51807 12.5861 2.51807ZM12.5861 4.51807C11.9785 4.51807 11.3958 4.72878 10.9662 5.10385C10.5366 5.47893 10.2952 5.98763 10.2952 6.51807V8.51807C10.2952 9.0485 10.5366 9.55721 10.9662 9.93228C11.3958 10.3074 11.9785 10.5181 12.5861 10.5181C13.1937 10.5181 13.7764 10.3074 14.206 9.93228C14.6356 9.55721 14.877 9.0485 14.877 8.51807V6.51807C14.877 5.98763 14.6356 5.47893 14.206 5.10385C13.7764 4.72878 13.1937 4.51807 12.5861 4.51807Z" fill="#181725"/>
</svg>
