<svg width="21" height="14" viewBox="0 0 21 14" fill="none" xmlns="http://www.w3.org/2000/svg">
<path d="M18.5073 4.26597V2.3449H2.50732V4.26597H18.5073ZM18.5073 6.18705H2.50732V11.9503H18.5073V6.18705ZM2.50732 0.423828H18.5073C19.0378 0.423828 19.5465 0.626226 19.9215 0.986497C20.2966 1.34677 20.5073 1.8354 20.5073 2.3449V11.9503C20.5073 12.4598 20.2966 12.9484 19.9215 13.3087C19.5465 13.6689 19.0378 13.8713 18.5073 13.8713H2.50732C1.97689 13.8713 1.46818 13.6689 1.09311 13.3087C0.718038 12.9484 0.507324 12.4598 0.507324 11.9503V2.3449C0.507324 1.8354 0.718038 1.34677 1.09311 0.986497C1.46818 0.626226 1.97689 0.423828 2.50732 0.423828ZM4.50732 8.10812H5.50732C5.77254 8.10812 6.02689 8.20932 6.21443 8.38945C6.40197 8.56959 6.50732 8.81391 6.50732 9.06866C6.50732 9.32341 6.40197 9.56772 6.21443 9.74786C6.02689 9.92799 5.77254 10.0292 5.50732 10.0292H4.50732C4.24211 10.0292 3.98775 9.92799 3.80022 9.74786C3.61268 9.56772 3.50732 9.32341 3.50732 9.06866C3.50732 8.81391 3.61268 8.56959 3.80022 8.38945C3.98775 8.20932 4.24211 8.10812 4.50732 8.10812ZM9.50732 8.10812H14.5073C14.7725 8.10812 15.0269 8.20932 15.2144 8.38945C15.402 8.56959 15.5073 8.81391 15.5073 9.06866C15.5073 9.32341 15.402 9.56772 15.2144 9.74786C15.0269 9.92799 14.7725 10.0292 14.5073 10.0292H9.50732C9.24211 10.0292 8.98775 9.92799 8.80022 9.74786C8.61268 9.56772 8.50732 9.32341 8.50732 9.06866C8.50732 8.81391 8.61268 8.56959 8.80022 8.38945C8.98775 8.20932 9.24211 8.10812 9.50732 8.10812Z" fill="#181725"/>
</svg>
